<?xml version="1.0" standalone="no"?>
<!DOCTYPE svg PUBLIC "-//W3C//DTD SVG 20010904//EN" "http://www.w3.org/TR/2001/REC-SVG-20010904/DTD/svg10.dtd">
<svg version="1.0" xmlns="http://www.w3.org/2000/svg" width="512.000000pt" height="512.000000pt" viewBox="0 0 512.000000 512.000000" preserveAspectRatio="xMidYMid meet">

  <g transform="translate(0.000000,512.000000) scale(0.100000,-0.100000)" fill="#dc2626" stroke="none">
    <path
      d="M1440 5109 c-313 -36 -623 -173 -833 -370 -131 -121 -210 -243 -259
-399 l-23 -75 0 -1380 c0 -1547 -6 -1424 74 -1590 48 -102 111 -185 208 -274
139 -130 302 -225 502 -291 143 -48 242 -68 391 -81 63 -6 115 -11 116 -12 1
-1 -137 -112 -308 -247 -170 -134 -319 -255 -329 -269 -26 -33 -24 -58 10 -92
l29 -29 1542 0 1542 0 29 29 c34 34 36 59 10 92 -10 14 -159 135 -329 269
-171 135 -309 246 -308 247 1 1 53 6 116 12 500 43 935 298 1101 646 80 166
74 44 74 1585 0 1142 -2 1384 -14 1429 -39 154 -125 294 -258 422 -150 144
-324 245 -543 313 -235 73 -164 69 -1375 72 -600 1 -1124 -2 -1165 -7z m766
-984 c30 -19 60 -49 79 -79 l30 -49 0 -637 0 -637 -30 -49 c-19 -30 -49 -60
-79 -79 l-49 -30 -597 0 -597 0 -49 30 c-30 19 -60 49 -79 79 l-30 49 -3 616
c-2 407 1 628 7 652 18 59 64 114 123 143 l53 26 586 -2 586 -3 49 -30z m2000
0 c30 -19 60 -49 79 -79 l30 -49 0 -637 0 -637 -30 -49 c-19 -30 -49 -60 -79
-79 l-49 -30 -597 0 -597 0 -49 30 c-30 19 -60 49 -79 79 l-30 49 -3 616 c-2
407 1 628 7 652 18 59 64 114 123 143 l53 26 586 -2 586 -3 49 -30z m-2753
-1914 c133 -52 246 -175 288 -312 28 -91 23 -225 -10 -312 -52 -133 -175 -246
-312 -288 -91 -28 -225 -23 -312 10 -133 52 -246 175 -288 312 -28 91 -23 225
10 312 50 128 172 244 304 287 85 28 236 23 320 -9z m2560 0 c133 -52 246
-175 288 -312 28 -91 23 -225 -10 -312 -52 -133 -175 -246 -312 -288 -91 -28
-225 -23 -312 10 -133 52 -246 175 -288 312 -28 91 -23 225 10 312 50 128 172
244 304 287 85 28 236 23 320 -9z"/>
  </g>
</svg>