<?xml version="1.0" standalone="no"?>
<!DOCTYPE svg PUBLIC "-//W3C//DTD SVG 20010904//EN"
 "http://www.w3.org/TR/2001/REC-SVG-20010904/DTD/svg10.dtd">
<svg version="1.0" xmlns="http://www.w3.org/2000/svg"
 width="1024.000000pt" height="1024.000000pt" viewBox="0 0 1024.000000 1024.000000"
 preserveAspectRatio="xMidYMid meet">
<metadata>
Created by potrace 1.11, written by Peter Selinger 2001-2013
</metadata>
<g transform="translate(0.000000,1024.000000) scale(0.100000,-0.100000)"
fill="#000000" stroke="none">
<path d="M2999 10236 c-2 -2 -37 -7 -77 -10 -41 -4 -89 -9 -108 -11 -64 -9
-99 -15 -119 -19 -11 -2 -40 -7 -65 -12 -51 -9 -44 -7 -90 -19 -19 -5 -39 -9
-45 -10 -20 -1 -80 -17 -90 -23 -5 -4 -19 -8 -30 -9 -11 -2 -49 -13 -85 -25
-36 -12 -67 -23 -70 -23 -25 -5 -92 -30 -177 -67 -23 -10 -44 -18 -47 -18 -12
0 -244 -115 -271 -134 -16 -11 -31 -20 -33 -18 -8 8 -304 -195 -397 -273 -159
-134 -309 -304 -419 -473 -40 -62 -137 -249 -142 -274 -1 -5 -2 -9 -4 -10 -1
-2 -3 -10 -5 -18 -3 -8 -16 -53 -30 -99 -14 -46 -25 -91 -25 -100 0 -10 -3
-21 -7 -24 -3 -4 -8 -24 -11 -44 -9 -71 -12 -5447 -3 -5488 5 -22 12 -56 14
-75 3 -19 8 -45 11 -58 3 -12 8 -32 11 -44 37 -169 172 -425 321 -610 62 -76
218 -235 284 -288 24 -19 48 -39 54 -45 38 -35 287 -205 301 -205 3 0 26 -14
51 -30 24 -17 44 -28 44 -24 0 3 7 1 15 -6 20 -17 118 -64 128 -62 4 1 7 -2 7
-6 0 -4 17 -14 38 -21 20 -8 55 -22 77 -32 81 -36 273 -104 350 -123 6 -2 17
-5 25 -9 21 -7 101 -27 125 -30 11 -1 26 -6 33 -10 6 -5 12 -6 12 -4 0 3 17 1
38 -4 20 -5 51 -12 67 -14 17 -3 41 -7 55 -9 14 -3 45 -8 70 -11 25 -4 56 -8
70 -10 50 -8 157 -17 255 -20 55 -2 102 -4 105 -5 3 -1 8 -2 13 -1 16 2 4 -10
-50 -52 -32 -25 -68 -53 -80 -63 -12 -11 -34 -28 -49 -39 -24 -17 -58 -44
-101 -80 -16 -13 -29 -23 -83 -65 -25 -19 -47 -37 -50 -40 -3 -3 -23 -19 -45
-35 -49 -37 -73 -56 -94 -75 -9 -8 -55 -44 -101 -80 -47 -35 -87 -67 -90 -70
-3 -3 -21 -17 -42 -32 -20 -15 -42 -34 -50 -41 -7 -7 -27 -23 -45 -35 -34 -24
-72 -55 -104 -85 -10 -9 -23 -17 -28 -17 -5 0 -11 -3 -13 -8 -1 -4 -23 -23
-48 -42 -25 -19 -50 -39 -56 -45 -6 -5 -26 -21 -44 -35 -18 -14 -42 -33 -54
-43 -11 -10 -25 -22 -31 -25 -48 -32 -55 -150 -11 -207 55 -71 -245 -65 3162
-65 1754 0 3083 4 3096 9 13 5 27 9 31 9 11 1 40 39 60 77 17 33 16 109 -1
141 -12 22 -57 64 -106 99 -16 11 -47 37 -70 57 -22 21 -47 38 -53 38 -7 0
-13 4 -13 8 0 5 -19 23 -42 40 -24 17 -55 41 -70 54 -14 13 -36 30 -48 38 -12
8 -30 22 -40 31 -10 8 -31 24 -45 35 -15 10 -37 28 -49 39 -12 11 -38 31 -56
45 -54 40 -95 74 -98 83 -2 4 -8 7 -13 7 -5 0 -17 8 -28 17 -10 10 -31 28 -47
40 -116 89 -162 125 -179 143 -12 11 -26 20 -33 20 -7 0 -12 3 -12 8 0 4 -52
48 -116 97 -172 135 -183 145 -159 145 211 9 340 16 340 21 0 1 11 3 25 4 54
4 133 17 250 42 41 8 86 17 100 19 14 3 32 8 40 11 8 4 23 7 32 8 16 2 175 50
208 62 8 4 18 7 23 8 4 2 8 3 10 5 1 1 9 3 17 5 36 7 216 83 320 135 116 57
146 73 171 91 14 10 29 16 33 12 3 -3 6 -2 6 4 0 6 14 16 30 23 16 7 30 16 30
21 0 5 7 9 15 9 8 0 15 5 15 11 0 5 4 8 9 4 6 -3 13 0 18 7 4 7 20 19 34 26
15 8 38 25 53 38 14 14 26 22 26 19 0 -3 10 3 23 15 12 11 53 46 92 77 77 64
199 184 260 257 22 27 52 63 68 81 15 18 27 36 27 40 0 3 6 13 13 20 27 31 36
43 52 76 10 19 21 36 25 39 3 3 22 37 41 75 19 39 38 73 42 76 5 3 8 9 8 13
-1 8 8 33 24 71 17 41 55 163 61 194 2 14 11 62 19 106 12 68 14 471 11 2785
-2 1488 -6 2716 -8 2730 -3 14 -8 36 -12 50 -3 14 -8 36 -10 50 -7 34 -40 144
-64 207 -25 66 -95 207 -104 211 -5 2 -8 8 -8 14 0 12 -95 152 -127 188 -13
14 -23 28 -23 33 0 16 -280 288 -365 353 -87 67 -233 167 -285 194 -14 7 -27
16 -30 19 -16 19 -420 206 -420 194 0 -3 -6 -1 -12 4 -22 17 -287 101 -378
119 -13 3 -56 12 -95 20 -38 8 -88 17 -109 20 -22 3 -43 7 -46 9 -4 2 -38 7
-76 11 -38 3 -78 9 -89 12 -22 7 -4329 14 -4336 8z m-869 -1918 c0 4 25 7 55
7 30 0 55 -3 55 -7 0 -4 11 -3 25 2 16 6 26 6 31 -1 4 -7 10 -7 16 -1 7 7 19
7 34 2 13 -5 24 -6 24 -2 0 4 25 7 55 7 30 0 55 -3 55 -7 0 -4 11 -3 25 2 16
6 26 6 31 -1 4 -7 10 -7 16 -1 7 7 19 7 34 2 13 -5 24 -6 24 -2 0 4 25 7 55 7
30 0 55 -3 55 -7 0 -4 11 -3 25 2 16 6 26 6 31 -1 4 -7 10 -7 16 -1 7 7 19 7
34 2 13 -5 24 -6 24 -2 0 4 25 7 55 7 30 0 55 -3 55 -7 0 -4 11 -3 25 2 16 6
26 6 31 -1 4 -7 10 -7 16 -1 7 7 19 7 34 2 13 -5 24 -6 24 -2 0 8 85 6 106 -2
6 -2 17 0 24 4 8 5 22 4 32 -1 10 -5 18 -6 18 -2 0 10 47 10 56 0 4 -4 12 -4
17 0 16 10 57 10 57 0 0 -4 8 -4 18 1 9 5 26 6 37 2 11 -4 30 -4 43 1 14 5 22
5 22 -2 0 -7 6 -7 17 0 11 6 24 6 35 0 10 -5 18 -6 18 -2 0 10 47 10 56 0 4
-4 12 -4 17 0 16 10 57 10 57 0 0 -4 8 -4 17 2 10 5 26 5 39 1 12 -5 24 -6 27
-4 8 9 81 9 94 1 6 -4 14 -3 18 2 4 7 15 7 30 1 14 -5 25 -6 25 -2 0 8 52 8
66 -1 6 -3 16 -2 24 3 8 5 21 5 31 -1 12 -6 20 -5 24 1 4 6 10 8 15 5 5 -3 39
-8 76 -11 69 -5 190 -46 210 -70 6 -8 15 -14 21 -14 16 0 82 -68 121 -127 50
-74 72 -141 78 -238 2 -43 6 -81 9 -84 2 -4 0 -13 -4 -20 -5 -7 -5 -28 -1 -47
4 -19 4 -34 0 -34 -5 0 -5 -12 -1 -27 5 -16 5 -37 1 -48 -4 -11 -4 -32 1 -47
4 -15 4 -30 -1 -33 -4 -3 -4 -21 0 -40 4 -19 4 -37 0 -40 -4 -3 -5 -20 -1 -37
4 -18 6 -42 5 -53 -1 -11 -3 -32 -3 -47 -1 -16 -1 -40 -2 -55 -2 -40 -2 -64 0
-98 1 -16 1 -37 1 -45 -1 -8 -1 -24 0 -35 1 -29 1 -88 0 -105 0 -8 0 -28 1
-45 2 -34 2 -58 0 -97 -1 -16 -1 -38 -1 -50 0 -13 -2 -32 -4 -43 -1 -11 0 -31
4 -45 4 -14 4 -34 0 -45 -4 -11 -4 -32 1 -47 4 -15 4 -30 -1 -33 -4 -3 -4 -21
0 -40 4 -19 4 -37 0 -40 -4 -3 -4 -20 0 -39 4 -19 4 -39 0 -46 -4 -7 -4 -27 0
-46 4 -19 4 -36 0 -39 -4 -3 -4 -21 0 -40 4 -19 4 -37 0 -40 -5 -3 -5 -18 0
-34 4 -15 4 -34 0 -41 -4 -6 -4 -27 0 -46 4 -19 4 -36 0 -39 -4 -3 -4 -21 0
-40 4 -19 4 -37 0 -40 -4 -3 -4 -21 0 -40 4 -19 4 -37 0 -40 -5 -3 -5 -18 0
-34 4 -15 4 -34 0 -41 -4 -6 -4 -27 0 -46 4 -19 4 -34 0 -34 -5 0 -5 -12 -1
-27 5 -16 5 -37 1 -48 -4 -11 -4 -32 1 -47 4 -14 5 -28 3 -31 -2 -2 -6 -24 -7
-48 -5 -55 -45 -189 -58 -189 -5 0 -9 -6 -9 -13 0 -13 -8 -24 -59 -82 -30 -35
-94 -85 -108 -85 -7 0 -13 -4 -13 -9 0 -15 -128 -52 -197 -56 -63 -4 -168 -6
-203 -4 -8 1 -44 1 -80 0 -36 0 -72 0 -80 0 -8 1 -44 1 -80 0 -36 0 -72 0 -80
0 -8 1 -44 1 -80 0 -36 0 -72 0 -80 0 -8 1 -44 1 -80 0 -36 0 -72 0 -80 0 -8
1 -44 1 -80 0 -36 0 -72 0 -80 0 -8 1 -44 1 -80 0 -36 0 -72 0 -80 0 -8 1 -44
1 -80 0 -36 0 -72 0 -80 0 -8 1 -44 1 -80 0 -36 0 -72 0 -80 0 -8 1 -44 1 -80
0 -36 0 -72 0 -80 0 -8 1 -44 1 -80 0 -36 0 -72 0 -80 0 -8 0 -55 0 -105 0
-49 0 -97 0 -105 0 -8 0 -37 0 -65 -1 -79 -2 -208 21 -225 40 -3 3 -21 12 -40
22 -137 65 -243 233 -244 390 -1 38 -4 68 -8 68 -4 0 -3 13 2 30 5 18 5 32 -1
36 -5 3 -7 10 -3 15 8 14 10 99 2 99 -4 0 -3 14 2 30 5 17 6 30 2 30 -8 0 -7
68 1 76 3 3 2 17 -3 30 -6 14 -6 24 0 24 5 0 5 12 0 30 -5 17 -5 30 0 30 5 0
5 13 0 30 -5 17 -5 30 0 30 5 0 5 13 0 30 -5 17 -5 30 0 30 5 0 5 12 1 28 -5
15 -5 37 0 49 5 13 4 25 -1 28 -6 4 -7 13 -1 24 5 9 6 23 2 30 -5 7 -5 30 -1
51 4 21 4 44 -1 51 -4 7 -3 21 2 30 6 11 5 20 -1 24 -5 3 -6 15 -1 28 5 12 5
34 0 49 -4 16 -4 28 1 28 5 0 5 13 0 30 -5 17 -5 30 0 30 5 0 5 13 0 30 -5 17
-5 30 0 30 5 0 5 13 0 30 -5 18 -5 30 0 30 6 0 6 10 0 24 -5 13 -6 27 -3 30 8
8 9 76 1 76 -4 0 -3 14 2 30 5 17 5 30 1 30 -4 0 -5 22 -1 50 3 27 3 55 -1 62
-4 6 -3 20 2 29 6 11 5 20 -1 24 -5 3 -6 15 -1 28 5 12 5 34 0 49 -4 16 -4 28
1 28 5 0 5 13 0 30 -5 17 -5 30 0 30 5 0 5 13 0 30 -5 17 -5 30 0 30 5 0 5 13
0 30 -5 18 -5 30 0 30 6 0 6 10 0 24 -5 13 -6 27 -3 30 8 8 9 76 1 76 -4 0 -3
14 2 30 5 17 6 30 2 30 -8 0 -6 85 2 99 4 5 2 12 -3 15 -6 4 -6 18 -1 36 5 19
5 30 -1 30 -6 0 -8 4 -5 8 3 5 7 39 11 75 9 108 58 216 132 291 43 43 134 105
164 111 10 2 24 7 29 10 13 8 44 14 99 21 25 2 47 6 49 9 2 2 15 0 28 -5 13
-5 24 -6 24 -2z m3986 -1 c6 -3 16 -2 24 3 8 5 21 5 31 -1 11 -6 20 -5 24 1 4
6 15 6 31 0 14 -6 23 -7 21 -2 -3 4 8 7 24 7 16 0 29 -3 29 -7 0 -4 11 -3 25
2 13 5 27 5 30 1 3 -5 20 -6 38 -1 18 4 43 3 55 -1 12 -5 22 -5 22 -1 0 4 13
7 29 7 16 0 27 -3 24 -7 -2 -5 7 -4 21 2 16 6 27 6 31 -1 4 -6 13 -6 23 0 10
6 23 6 34 0 10 -6 19 -5 23 1 4 6 15 6 30 0 14 -5 25 -6 25 -2 0 4 13 7 29 7
16 0 27 -3 24 -7 -2 -5 7 -4 21 2 16 6 27 6 31 -1 4 -6 13 -6 23 0 10 6 23 6
34 0 10 -6 19 -5 23 1 4 6 15 6 30 0 14 -5 25 -6 25 -2 0 4 13 7 29 7 16 0 27
-3 24 -7 -2 -5 7 -4 21 2 16 6 27 6 31 -1 4 -5 11 -7 16 -3 15 9 79 11 79 2 0
-4 11 -3 25 2 15 6 26 6 30 -1 4 -6 13 -6 23 0 9 5 26 5 40 0 13 -5 21 -6 19
-1 -3 4 8 7 24 7 16 0 29 -3 29 -7 0 -4 11 -3 25 2 15 6 26 6 30 -1 4 -6 13
-6 23 0 10 6 23 6 34 0 10 -6 19 -5 23 1 4 6 15 6 31 0 14 -6 23 -7 21 -2 -3
4 8 7 24 7 16 0 29 -3 29 -7 0 -4 11 -3 25 2 13 5 27 6 29 1 3 -4 26 -5 51 -1
26 4 48 3 51 -2 4 -6 10 -6 16 0 7 7 19 7 34 2 13 -5 24 -6 24 -2 0 8 52 8 66
-1 6 -3 16 -2 24 3 8 5 21 5 31 -1 11 -6 20 -5 24 1 3 6 15 6 30 0 15 -6 27
-6 30 0 3 5 15 6 28 1 12 -5 32 -5 44 0 13 5 25 4 28 -1 4 -7 13 -7 24 0 10 5
21 7 24 3 4 -3 26 -8 49 -10 84 -7 134 -24 203 -68 129 -82 222 -240 221 -372
-1 -29 2 -53 6 -53 4 0 3 -13 -2 -29 -4 -15 -4 -34 1 -42 4 -7 4 -18 -1 -24
-5 -6 -5 -17 -1 -24 5 -7 5 -28 1 -47 -4 -19 -4 -34 0 -34 5 0 5 -13 0 -30 -5
-16 -6 -30 -2 -30 8 0 7 -68 -1 -76 -3 -3 -2 -17 3 -30 6 -14 6 -24 0 -24 -5
0 -5 -12 0 -30 5 -17 5 -30 0 -30 -5 0 -5 -13 0 -30 5 -17 5 -30 0 -30 -5 0
-5 -13 0 -30 5 -17 5 -30 0 -30 -5 0 -5 -12 -1 -28 5 -15 5 -37 0 -49 -5 -13
-4 -25 1 -28 6 -4 7 -13 1 -24 -5 -9 -6 -22 -3 -28 8 -13 7 -77 -1 -90 -3 -5
-2 -15 3 -23 4 -7 4 -24 0 -36 -6 -14 -5 -26 0 -29 5 -3 5 -18 0 -35 -5 -16
-5 -32 0 -35 5 -3 5 -19 0 -35 -5 -17 -5 -32 0 -35 5 -3 6 -13 3 -23 -4 -9 -6
-32 -5 -52 1 -19 2 -41 2 -47 0 -7 0 -20 0 -28 0 -8 0 -22 0 -30 0 -8 0 -22 0
-30 0 -8 0 -22 0 -30 0 -8 0 -22 0 -30 0 -8 0 -22 0 -30 0 -8 0 -22 0 -30 0
-8 0 -22 0 -30 0 -8 0 -22 0 -30 0 -8 0 -22 0 -30 0 -8 0 -22 0 -30 0 -8 0
-22 0 -30 0 -8 0 -22 0 -30 0 -8 0 -22 0 -30 0 -8 0 -22 0 -30 0 -8 0 -22 0
-30 0 -8 0 -21 0 -27 0 -7 1 -29 2 -48 1 -20 -1 -42 -4 -51 -3 -9 -2 -22 2
-29 5 -7 4 -24 0 -36 -6 -14 -5 -26 0 -29 5 -3 5 -18 0 -35 -5 -16 -5 -32 0
-35 5 -3 5 -19 0 -35 -5 -18 -5 -32 1 -36 5 -3 7 -10 3 -15 -8 -14 -10 -99 -2
-99 4 0 3 -13 -2 -30 -5 -17 -5 -30 0 -30 5 0 7 -6 5 -12 -3 -7 -7 -38 -9 -68
-7 -78 -43 -186 -73 -218 -7 -7 -13 -17 -13 -21 0 -13 -83 -90 -129 -121 -69
-47 -194 -85 -261 -81 -8 0 -51 0 -95 0 -85 -1 -89 -1 -120 1 -11 1 -69 1
-128 0 -59 0 -112 2 -117 5 -6 4 -10 3 -10 -2 0 -4 -43 -6 -95 -3 -52 3 -95 3
-95 0 0 -6 -247 -2 -272 4 -10 2 -18 1 -18 -2 0 -4 -43 -5 -95 -2 -52 3 -95 3
-95 0 0 -6 -247 -2 -272 4 -10 2 -18 1 -18 -2 0 -4 -43 -5 -95 -2 -52 3 -95 3
-95 0 0 -3 -44 -4 -97 -3 -150 3 -191 3 -278 4 -70 0 -125 3 -201 12 -12 2
-55 19 -95 39 -158 78 -254 224 -266 403 -3 44 -5 86 -4 93 2 23 2 37 1 57 -1
29 -1 88 0 105 0 8 0 29 -1 45 -2 34 -2 58 0 98 1 15 1 37 1 50 0 12 2 31 4
42 1 11 0 31 -4 45 -4 14 -4 34 0 45 4 11 4 32 -1 47 -4 15 -4 30 1 33 4 3 4
21 0 40 -4 19 -4 37 0 40 4 3 4 20 0 39 -4 19 -4 39 0 46 4 7 4 27 0 46 -4 19
-4 36 0 39 4 3 4 21 0 40 -4 19 -4 37 0 40 5 3 5 18 0 34 -4 15 -4 34 0 41 4
6 4 27 0 46 -4 19 -4 36 0 39 4 3 4 21 0 40 -4 19 -4 37 0 40 4 3 4 21 0 40
-4 19 -4 37 0 40 5 3 5 18 0 34 -4 15 -4 34 0 41 4 6 4 27 0 46 -4 19 -4 34 0
34 5 0 5 12 1 28 -5 15 -5 36 -1 47 4 11 4 32 -1 47 -4 15 -4 30 1 33 4 3 4
21 0 40 -4 19 -4 37 0 40 4 3 5 20 1 37 -4 18 -6 42 -5 53 1 11 3 32 3 48 1
15 1 39 2 55 2 39 2 63 0 97 -1 17 -1 37 -1 45 1 8 1 24 0 35 -1 27 -1 87 -1
103 1 6 1 18 2 25 0 6 0 28 -1 47 -3 78 29 216 54 232 6 4 7 8 3 8 -12 0 47
81 90 124 70 69 206 133 276 129 9 0 17 2 17 6 0 8 64 6 76 -2z m-3361 -3857
c28 -6 58 -13 67 -15 10 -2 56 -19 103 -39 174 -71 339 -207 437 -361 18 -27
37 -53 43 -57 5 -4 7 -8 3 -8 -4 0 1 -17 11 -37 76 -152 101 -271 95 -453 -4
-121 -8 -156 -17 -180 -4 -8 -8 -26 -11 -40 -9 -49 -87 -235 -105 -250 -3 -3
-19 -25 -34 -48 -42 -65 -153 -177 -227 -230 -36 -26 -67 -47 -70 -47 -3 0
-21 -10 -40 -22 -19 -12 -53 -28 -75 -36 -22 -8 -49 -18 -60 -23 -11 -4 -22
-8 -25 -9 -3 -1 -12 -5 -20 -8 -25 -11 -192 -37 -200 -32 -5 3 -11 1 -15 -5
-4 -7 -12 -7 -23 -1 -10 6 -23 6 -34 0 -10 -5 -18 -6 -18 -2 0 5 -19 8 -42 7
-51 -1 -194 27 -258 51 -269 101 -479 305 -575 560 -30 78 -55 190 -60 268 -3
44 -8 83 -11 88 -3 5 -2 9 3 9 4 0 8 21 9 48 2 116 32 228 95 357 130 266 375
454 669 515 97 20 301 20 385 0z m5073 10 c1 -1 10 -3 20 -5 61 -7 171 -44
257 -86 142 -69 264 -174 358 -305 122 -171 177 -355 172 -579 -1 -71 -7 -142
-13 -156 -6 -15 -8 -30 -5 -33 3 -3 0 -12 -7 -21 -7 -8 -10 -15 -7 -15 8 0
-28 -102 -55 -160 -63 -133 -197 -293 -308 -368 -30 -20 -57 -39 -60 -42 -8
-9 -143 -75 -155 -75 -5 -1 -23 -7 -40 -14 -16 -7 -39 -15 -50 -17 -92 -21
-161 -30 -222 -30 -40 1 -73 -3 -73 -7 0 -5 -5 -5 -12 -1 -6 4 -34 9 -62 11
-28 2 -85 13 -126 24 -41 12 -80 22 -86 23 -7 1 -18 7 -25 13 -8 6 -16 11 -19
12 -31 2 -185 91 -240 140 -63 56 -77 70 -114 112 -53 61 -117 161 -152 239
-16 36 -30 68 -30 73 -1 4 -2 8 -4 10 -1 1 -3 9 -5 17 -3 8 -12 42 -20 75 -22
82 -27 292 -10 381 22 107 22 107 50 180 63 159 175 312 294 401 13 10 31 25
41 33 61 54 252 139 350 156 57 10 85 16 88 18 3 4 266 -1 270 -4z"/>
</g>
</svg>
